<!-- icon666.com - MILLIONS vector ICONS FREE --><svg id="Capa_1" enable-background="new 0 0 511.752 511.752" viewBox="0 0 511.752 511.752" xmlns="http://www.w3.org/2000/svg"><g><path d="m511.726 252.339-14.998.207c.888 64.335-23.329 125.165-68.189 171.284-44.862 46.119-105 72.008-169.333 72.898-64.341.914-125.164-23.328-171.284-68.189-46.119-44.862-72.008-104.999-72.898-169.333s23.327-125.163 68.189-171.283c44.862-46.119 104.999-72.008 169.333-72.898 59.323-.825 115.604 19.701 160.167 58.041l-13.481.186.207 14.999 39.76-.55-.55-39.759-14.998.207.203 14.716c-47.554-41.494-107.906-63.74-171.515-62.839-68.341.945-132.223 28.447-179.878 77.438-47.656 48.992-73.38 113.61-72.436 181.95.945 68.341 28.446 132.222 77.438 179.877 48.125 46.812 111.319 72.463 178.317 72.461 1.207 0 2.424-.008 3.633-.025 68.34-.945 132.222-28.446 179.878-77.438 47.654-48.991 73.38-113.609 72.435-181.95z"></path><path d="m255.876 43.376c-56.761 0-110.124 22.104-150.26 62.24s-62.24 93.5-62.24 150.26 22.104 110.124 62.239 150.261c40.136 40.136 93.5 62.24 150.26 62.24s110.125-22.105 150.261-62.24c40.136-40.137 62.239-93.5 62.239-150.26s-22.104-110.124-62.239-150.26c-40.136-40.137-93.5-62.241-150.26-62.241zm139.653 352.154c-10.557 10.557-22.1 19.769-34.419 27.555l-10.034-17.38-12.99 7.5 10.045 17.399c-25.936 13.735-54.757 21.506-84.755 22.619v-19.999h-15v19.999c-29.998-1.113-58.819-8.884-84.755-22.619l10.046-17.399-12.99-7.5-10.035 17.38c-12.319-7.786-23.862-16.998-34.419-27.555-10.578-10.578-19.804-22.146-27.6-34.492l17.363-10.025-7.5-12.99-17.376 10.032c-13.72-25.934-21.478-54.75-22.582-84.742h19.939v-15h-19.935c1.122-29.983 8.895-58.79 22.627-84.713l17.326 10.003 7.5-12.99-17.306-9.992c7.784-12.312 16.992-23.848 27.543-34.4 10.572-10.572 22.134-19.794 34.472-27.588l9.982 17.288 12.99-7.5-9.99-17.303c25.921-13.717 54.723-21.478 84.699-22.59v19.874h15v-19.872c29.977 1.112 58.778 8.873 84.699 22.59l-9.989 17.303 12.99 7.5 9.981-17.288c12.339 7.794 23.9 17.016 34.472 27.588 10.551 10.552 19.759 22.088 27.543 34.4l-17.306 9.992 7.5 12.99 17.326-10.003c13.732 25.923 21.506 54.73 22.627 84.713h-19.935v15h19.939c-1.103 29.991-8.862 58.807-22.582 84.741l-17.376-10.032-7.5 12.99 17.363 10.024c-7.794 12.347-17.02 23.915-27.598 34.492z"></path><path d="m217.859 328.582h15v15h-15z"></path><path d="m247.859 328.582h15v15h-15z"></path><path d="m277.859 328.582h15v15h-15z"></path><path d="m240.349 246.975h105.456v15h-105.456z" transform="matrix(.37 -.929 .929 .37 -51.7 432.744)"></path><path d="m340.2 216.531h44.005l-38.967 83.311 13.588 6.356 42.781-91.468v-13.199h-61.407z"></path><path d="m240.212 201.277h-22.937l-46.563 81.148h54.296l-.06 23.829 15 .038.06-23.867h6.627v-15h-6.59zm-15.167 66.149h-28.433l28.558-49.77z"></path><path d="m159.805 259.522c5.608-8.013 9.255-15.538 10.838-22.366l.644-4.738v-.477c0-16.978-13.812-30.79-30.79-30.79-14.68 0-27.386 10.442-30.212 24.83l14.719 2.891c1.448-7.371 7.963-12.721 15.493-12.721 8.562 0 15.554 6.851 15.784 15.358l-.333 2.603c-1.187 4.823-3.978 10.411-8.301 16.62l-34.041 42.708-.049 13.128 54.064.166.046-15-33.438-.103 25.295-31.736z"></path></g></svg>