<!-- icon666.com - MILLIONS vector ICONS FREE --><svg id="Layer_1" enable-background="new 0 0 128 128" viewBox="0 0 128 128" xmlns="http://www.w3.org/2000/svg"><path id="Delivery_Time" d="m40.508 41.075c-.244-.146-.394-.409-.395-.694l-.045-9.381c-.004-.827.666-1.5 1.493-1.5h.007c.826 0 1.496.667 1.5 1.493l.036 7.682c.001.284.151.547.395.694l9.199 5.503c.58.347.929 1.032.754 1.685-.195.726-.818 1.141-1.461 1.141-.263 0-.528-.068-.77-.213zm75.448 35.763v15.806c0 2.448-1.984 4.432-4.432 4.432h-2.271c-.684 0-1.34-.136-1.954-.365-.565 4.913-4.745 8.742-9.807 8.742s-9.241-3.829-9.807-8.742c-.614.229-1.27.365-1.954.365h-2.271c-2.448 0-4.432-1.984-4.432-4.432v-33.088c0-2.448 1.984-4.432 4.432-4.432h18.771c1.634 0 3.129.894 3.903 2.332l9.292 17.283c.348.645.53 1.366.53 2.099zm-11.715 20.085c.924-4.837-3.259-9.019-8.096-8.096-2.704.516-4.884 2.697-5.401 5.401-.924 4.837 3.259 9.019 8.096 8.096 2.704-.517 4.885-2.698 5.401-5.401zm8.715-20.085c0-.237-.059-.47-.171-.679l-9.291-17.282c-.25-.464-.733-.753-1.262-.753h-18.77c-.791 0-1.432.641-1.432 1.432v33.088c0 .791.641 1.432 1.432 1.432h2.271c1.098 0 2.066-.68 2.411-1.69.015-.044.039-.083.057-.125 1.367-3.818 5.01-6.561 9.292-6.561s7.926 2.744 9.292 6.562c.019.042.042.081.057.125.345 1.011 1.313 1.69 2.411 1.69h2.271c.791 0 1.432-.641 1.432-1.432zm-36.553-22.309v36.857c0 3.142-2.547 5.688-5.688 5.688h-26.981c-.684 0-1.341-.136-1.955-.365-.565 4.913-4.745 8.742-9.807 8.742s-9.241-3.829-9.806-8.742c-.614.229-1.27.365-1.955.365h-2.479c-3.142 0-5.688-2.547-5.688-5.688v-36.857c0-3.142 2.547-5.688 5.688-5.688h4.521c.823 0 1.634.11 2.423.305-.624-1.569-1.064-3.221-1.265-4.943-.602-5.147.837-10.221 4.051-14.286 7.481-9.461 22.068-10.073 30.254-.255 1.477 1.772 2.619 3.817 3.342 6.008 1.509 4.573 1.324 9.276-.343 13.453.777-.182 1.58-.282 2.402-.282h7.598c3.142 0 5.688 2.547 5.688 5.688zm-50.081-13.922c-.324 4.473 1.075 8.663 3.798 11.892.029.034.063.063.092.097.013.016.022.034.035.05 1.745 2.02 3.992 3.671 6.776 4.678 6.367 2.303 13.662.474 18.078-4.658 3.898-4.53 5.063-10.703 2.935-16.553-.5-1.374-1.205-2.673-2.084-3.842-3.413-4.538-8.357-6.716-13.253-6.716-5.919 0-11.771 3.181-14.78 9.219-.906 1.817-1.451 3.808-1.597 5.833zm12.399 56.315c.923-4.836-3.259-9.018-8.095-8.095-2.704.516-4.884 2.696-5.401 5.4-.925 4.838 3.26 9.022 8.097 8.096 2.703-.517 4.883-2.698 5.399-5.401zm34.682-42.393c0-1.485-1.204-2.688-2.688-2.688h-7.598c-2.181 0-4.199.924-5.536 2.533-.01.013-.024.022-.034.034-3.816 4.556-9.324 6.937-14.885 6.937-4.215 0-8.458-1.363-12.014-4.175-1.042-.823-1.981-1.741-2.819-2.732-1.455-1.649-3.477-2.597-5.576-2.597h-4.521c-1.485 0-2.688 1.204-2.688 2.688v36.857c0 1.485 1.204 2.688 2.688 2.688h2.479c1.097 0 2.066-.68 2.412-1.69.015-.045.039-.084.058-.126 1.367-3.817 5.01-6.56 9.291-6.56 4.284 0 7.928 2.746 9.294 6.566.018.041.041.078.055.12.345 1.011 1.314 1.69 2.412 1.69h26.981c1.485 0 2.688-1.204 2.688-2.688v-36.857z"></path></svg>