<!-- icon666.com - MILLIONS vector ICONS FREE --><svg id="Layer_1" enable-background="new 0 0 512 512" viewBox="0 0 512 512" xmlns="http://www.w3.org/2000/svg"><g><ellipse cx="256.001" cy="406" rx="10" ry="10" transform="matrix(.811 -.585 .585 .811 -189.07 226.322)"></ellipse><path d="m457 186c-4.386 0-8.681.521-12.83 1.506l7.776-19.434c14.591-36.502-6.406-77.494-44.5-87.023-24.909-6.225-51.799 2.788-67.744 24.226-11.752-24.042-36.115-39.275-62.882-39.275h-41.64c-26.455 0-50.876 14.921-62.776 39.066-15.758-21.29-42.465-30.358-67.298-24.148-38.3 9.569-59.018 51.074-43.712 87.413l8.292 19.69c-4.73-1.311-9.659-2.021-14.686-2.021-30.327 0-55 24.673-55 55 0 20.824 11.802 39.706 30 49.002v55.998c0 37.255 29.257 67.797 66 69.878v20.122c0 5.523 4.477 10 10 10s10-4.477 10-10v-20h95c5.523 0 10-4.477 10-10s-4.477-10-10-10h-111c-27.57 0-50-22.43-50-50v-62.56c0-4.238-2.671-8.016-6.667-9.428-13.956-4.934-23.333-18.201-23.333-33.012 0-19.299 15.701-35 35-35 19.17 0 35 15.514 35 35v105c0 5.523 4.477 10 10 10h312c5.523 0 10-4.477 10-10 0-11.408 0-88.76 0-105 0-19.241 15.554-35 35-35 19.299 0 35 15.701 35 35 0 14.811-9.377 28.078-23.333 33.012-3.995 1.413-6.667 5.19-6.667 9.428v62.56c0 27.57-22.43 50-50 50h-111c-5.523 0-10 4.477-10 10s4.477 10 10 10h95v20c0 5.523 4.477 10 10 10s10-4.477 10-10v-20.122c36.743-2.081 66-32.623 66-69.878v-55.998c18.198-9.296 30-28.178 30-49.002 0-30.327-24.673-55-55-55zm-377.174-25.432c-10.561-25.072 3.76-53.659 30.13-60.247 25.502-6.379 50.955 10.747 54.665 36.764 3.429 24 18.303 128.088 19.705 137.899-27.01-.798-53.146 7.787-74.326 24.208v-58.192c0-10.787-3.113-21.181-8.998-30.142zm166.174 175.432h-136v-9.704c21.551-23.567 52.903-34.905 84.593-30.405 19.369 2.753 37.059 11.153 51.407 24.369zm-41.123-58.581-19.197-134.352c0-.001 0-.002 0-.003-4.277-30.066 19.041-57.064 49.5-57.064h41.64c30.338 0 53.764 26.871 49.508 57.001-.004.029-.004.057-.008.085-.001.01-.004.019-.006.029l-19.192 134.304c-18.95 3.949-36.371 12.455-51.123 24.991-14.75-12.535-32.172-21.042-51.122-24.991zm197.123 58.581h-136v-15.736c14.349-13.217 32.038-21.62 51.406-24.373 31.694-4.502 63.043 6.838 84.594 30.405zm31.376-175.355-17.583 43.943c-8.904 10.059-13.793 22.905-13.793 36.412v58.192c-21.179-16.421-47.313-25.008-74.326-24.208.305-2.133.842-5.89 19.625-137.35 3.759-26.315 29.514-43.629 55.294-37.183 26.434 6.613 40.845 35.023 30.783 60.194z"></path></g></svg>